<?xml version="1.0" standalone="no"?>
<!DOCTYPE svg PUBLIC "-//W3C//DTD SVG 1.1//EN"
  "http://www.w3.org/Graphics/SVG/1.1/DTD/svg11.dtd">
<svg width="153mm" height="229.99999999999994mm" viewBox="-2 -128.99999999999997 153 229.99999999999994" xmlns="http://www.w3.org/2000/svg" version="1.1">
	<title>svgOutput</title>
	<desc>made with tinkercad</desc>
<path d="M 149 -27.999999999999993 L 81 -27.999999999999993 L 71 -27.999999999999993 L 56 -27.999999999999993 L 1 -27.999999999999993 L 0 -27.999999999999993 L -1 -27.999999999999993 L -1 -127.99999999999997 L 0 -127.99999999999997 L 1 -127.99999999999997 L 56 -127.99999999999997 L 71 -127.99999999999997 L 81 -127.99999999999997 L 149 -127.99999999999997 L 149 -27.999999999999993 M 71 -20.999999999999996 L 81 -20.999999999999996 L 81 -10.999999999999998 L 71 -10.999999999999998 L 71 -20.999999999999996 M 138.0030059814453 77.59819030761717 L 138.0030059814453 77.59799957275389 L 138 77.59799957275389 L 134.9980010986328 77.59799957275389 L 56 77.59799957275389 L 15.003000259399414 77.59799957275389 L 12.288000106811523 77.59799957275389 L 12 77.59799957275389 L 11.998000144958496 77.59799957275389 L 11.998000144958496 77.59812927246092 L 11.607999801635742 77.6230010986328 L 11.222999572753906 77.69999694824217 L 10.856904983520508 77.82399749755858 L 10.85099983215332 77.82599639892577 L 10.49899959564209 77.99999999999999 L 10.17199993133545 78.21800231933592 L 9.876999855041504 78.47699737548827 L 9.618000030517578 78.77200317382811 L 9.399999618530273 79.09899902343749 L 9.22599983215332 79.45099639892577 L 9.100000381469727 79.82299804687499 L 9.02299976348877 80.20800018310545 L 8.998000144958496 80.59999847412108 L 9.02299976348877 80.9919967651367 L 9.100000381469727 81.37699890136717 L 9.22599983215332 81.74900054931639 L 9.310528755187988 81.9199981689453 L 9.399999618530273 82.10099792480467 L 9.618000030517578 82.42800140380858 L 9.876999855041504 82.72299957275389 L 10.17199993133545 82.98200225830077 L 10.49899959564209 83.19999694824217 L 10.85099983215332 83.37400054931639 L 11.222999572753906 83.49999999999999 L 11.607999801635742 83.57700347900389 L 11.998000144958496 83.60286712646483 L 11.998000144958496 83.60299682617186 L 12 83.60299682617186 L 12.288000106811523 83.60299682617186 L 15.003000259399414 83.60299682617186 L 56 83.60299682617186 L 134.9980010986328 83.60299682617186 L 138 83.60299682617186 L 138.0030059814453 83.60299682617186 L 138.0030059814453 83.60279846191405 L 138.39199829101562 83.57700347900389 L 138.77699279785156 83.49999999999999 L 139.1490020751953 83.37400054931639 L 139.26400756835938 83.31715393066405 L 139.50100708007812 83.19999694824217 L 139.8280029296875 82.98200225830077 L 140.1230010986328 82.72299957275389 L 140.3820037841797 82.42800140380858 L 140.60000610351562 82.10099792480467 L 140.68946838378906 81.9199981689453 L 140.7740020751953 81.74900054931639 L 140.89999389648438 81.37699890136717 L 140.9770050048828 80.9919967651367 L 141.0030059814453 80.59999847412108 L 140.9770050048828 80.20800018310545 L 140.89999389648438 79.82299804687499 L 140.7740020751953 79.45099639892577 L 140.60000610351562 79.09899902343749 L 140.3820037841797 78.77200317382811 L 140.1230010986328 78.47699737548827 L 139.8280029296875 78.21800231933592 L 139.50100708007812 77.99999999999999 L 139.26400756835938 77.88284301757811 L 139.1490020751953 77.82599639892577 L 139.14309692382812 77.82399749755858 L 138.77699279785156 77.69999694824217 L 138.39199829101562 77.6230010986328 L 138.0030059814453 77.59819030761717 M 138.0030059814453 36.79819107055663 L 138.0030059814453 36.79800033569335 L 138 36.79800033569335 L 135.16799926757812 36.79800033569335 L 134.9980010986328 36.79800033569335 L 56 36.79800033569335 L 15.003000259399414 36.79800033569335 L 12.288000106811523 36.79800033569335 L 12 36.79800033569335 L 11.998000144958496 36.79800033569335 L 11.998000144958496 36.79812622070312 L 11.607999801635742 36.82300186157226 L 11.402999877929688 36.86399841308593 L 11.222999572753906 36.9000015258789 L 10.85099983215332 37.02600097656249 L 10.49899959564209 37.200000762939446 L 10.17199993133545 37.41799926757812 L 9.876999855041504 37.67699813842773 L 9.618000030517578 37.972000122070305 L 9.399999618530273 38.298999786376946 L 9.22599983215332 38.65100097656249 L 9.13759708404541 38.91199874877929 L 9.100000381469727 39.022998809814446 L 9.02299976348877 39.408000946044915 L 8.998000144958496 39.79999923706054 L 9.02299976348877 40.19200134277343 L 9.100000381469727 40.57699966430663 L 9.22599983215332 40.94900131225585 L 9.231437683105469 40.95999908447265 L 9.399999618530273 41.30099868774413 L 9.618000030517578 41.627998352050774 L 9.876999855041504 41.92300033569335 L 10.17199993133545 42.18199920654296 L 10.49899959564209 42.4000015258789 L 10.85099983215332 42.57400131225585 L 11.222999572753906 42.700000762939446 L 11.607999801635742 42.77700042724609 L 11.998000144958496 42.80286788940429 L 11.998000144958496 42.80300140380859 L 12 42.80300140380859 L 12.288000106811523 42.80300140380859 L 15.003000259399414 42.80300140380859 L 56 42.80300140380859 L 134.9980010986328 42.80300140380859 L 138 42.80300140380859 L 138.0030059814453 42.80300140380859 L 138.0030059814453 42.80279922485351 L 138.39199829101562 42.77700042724609 L 138.77699279785156 42.700000762939446 L 139.1490020751953 42.57400131225585 L 139.26400756835938 42.51715469360351 L 139.50100708007812 42.4000015258789 L 139.8280029296875 42.18199920654296 L 140.1230010986328 41.92300033569335 L 140.3820037841797 41.627998352050774 L 140.60000610351562 41.30099868774413 L 140.76856994628906 40.95999908447265 L 140.7740020751953 40.94900131225585 L 140.89999389648438 40.57699966430663 L 140.9770050048828 40.19200134277343 L 141.0030059814453 39.79999923706054 L 140.9770050048828 39.408000946044915 L 140.89999389648438 39.022998809814446 L 140.7740020751953 38.65100097656249 L 140.60000610351562 38.298999786376946 L 140.3820037841797 37.972000122070305 L 140.1230010986328 37.67699813842773 L 139.8280029296875 37.41799926757812 L 139.50100708007812 37.200000762939446 L 139.26400756835938 37.08284759521484 L 139.1490020751953 37.02600097656249 L 138.77699279785156 36.9000015258789 L 138.5970001220703 36.86399841308593 L 138.39199829101562 36.82300186157226 L 138.0030059814453 36.79819107055663 M 138.0030059814453 16.398191452026364 L 138.0030059814453 16.398000717163082 L 138 16.398000717163082 L 135.16799926757812 16.398000717163082 L 134.9980010986328 16.398000717163082 L 56 16.398000717163082 L 15.003000259399414 16.398000717163082 L 12.288000106811523 16.398000717163082 L 12 16.398000717163082 L 11.998000144958496 16.398000717163082 L 11.998000144958496 16.398126602172848 L 11.607999801635742 16.423000335693356 L 11.222999572753906 16.499999999999996 L 10.85099983215332 16.62599945068359 L 10.49899959564209 16.799999237060543 L 10.17199993133545 17.017999649047848 L 9.876999855041504 17.27700042724609 L 9.618000030517578 17.572000503540036 L 9.399999618530273 17.899000167846676 L 9.22599983215332 18.25099945068359 L 9.100000381469727 18.622999191284176 L 9.02299976348877 19.007999420166012 L 8.998000144958496 19.39999961853027 L 9.02299976348877 19.791999816894528 L 9.100000381469727 20.177000045776364 L 9.202629089355469 20.479999542236325 L 9.22599983215332 20.54899978637695 L 9.399999618530273 20.900999069213864 L 9.618000030517578 21.228000640869137 L 9.876999855041504 21.523000717163082 L 10.17199993133545 21.78199958801269 L 10.49899959564209 21.999999999999996 L 10.85099983215332 22.17399978637695 L 11.222999572753906 22.299999237060543 L 11.607999801635742 22.377000808715817 L 11.998000144958496 22.40286827087402 L 11.998000144958496 22.402999877929684 L 12 22.402999877929684 L 12.288000106811523 22.402999877929684 L 15.003000259399414 22.402999877929684 L 56 22.402999877929684 L 134.9980010986328 22.402999877929684 L 138 22.402999877929684 L 138.0030059814453 22.402999877929684 L 138.0030059814453 22.40280151367187 L 138.39199829101562 22.377000808715817 L 138.77699279785156 22.299999237060543 L 139.1490020751953 22.17399978637695 L 139.26400756835938 22.117153167724606 L 139.50100708007812 21.999999999999996 L 139.8280029296875 21.78199958801269 L 140.1230010986328 21.523000717163082 L 140.3820037841797 21.228000640869137 L 140.60000610351562 20.900999069213864 L 140.7740020751953 20.54899978637695 L 140.79737854003906 20.479999542236325 L 140.89999389648438 20.177000045776364 L 140.9770050048828 19.791999816894528 L 141.0030059814453 19.39999961853027 L 140.9770050048828 19.007999420166012 L 140.89999389648438 18.622999191284176 L 140.7740020751953 18.25099945068359 L 140.60000610351562 17.899000167846676 L 140.3820037841797 17.572000503540036 L 140.1230010986328 17.27700042724609 L 139.8280029296875 17.017999649047848 L 139.50100708007812 16.799999237060543 L 139.26400756835938 16.682846069335934 L 139.1490020751953 16.62599945068359 L 138.77699279785156 16.499999999999996 L 138.39199829101562 16.423000335693356 L 138.0030059814453 16.398191452026364 M 138.0030059814453 57.19819259643553 L 138.0030059814453 57.19800186157225 L 138 57.19800186157225 L 134.9980010986328 57.19800186157225 L 56 57.19800186157225 L 15.003000259399414 57.19800186157225 L 12.47585678100586 57.19800186157225 L 12.267000198364258 57.19800186157225 L 12 57.19800186157225 L 11.998000144958496 57.19800186157225 L 11.998000144958496 57.19812774658202 L 11.607999801635742 57.22299957275389 L 11.222999572753906 57.29999923706053 L 11.093094825744629 57.34400177001952 L 10.85099983215332 57.425998687744126 L 10.49899959564209 57.59999847412108 L 10.17199993133545 57.81800079345702 L 9.876999855041504 58.076999664306626 L 9.618000030517578 58.372001647949205 L 9.399999618530273 58.699001312255845 L 9.22599983215332 59.050998687744126 L 9.100000381469727 59.423000335693345 L 9.02299976348877 59.80799865722655 L 8.998000144958496 60.20000076293944 L 9.02299976348877 60.591999053955064 L 9.100000381469727 60.97700119018553 L 9.22599983215332 61.348999023437486 L 9.27098274230957 61.43999862670897 L 9.399999618530273 61.70100021362303 L 9.618000030517578 62.02799987792967 L 9.876999855041504 62.32300186157225 L 10.17199993133545 62.58200073242186 L 10.49899959564209 62.79999923706053 L 10.85099983215332 62.973999023437486 L 11.222999572753906 63.09999847412108 L 11.607999801635742 63.17699813842772 L 11.998000144958496 63.20286560058592 L 11.998000144958496 63.20299911499022 L 12 63.20299911499022 L 12.288000106811523 63.20299911499022 L 15.003000259399414 63.20299911499022 L 56 63.20299911499022 L 134.9980010986328 63.20299911499022 L 138 63.20299911499022 L 138.0030059814453 63.20299911499022 L 138.0030059814453 63.20280075073241 L 138.39199829101562 63.17699813842772 L 138.77699279785156 63.09999847412108 L 139.1490020751953 62.973999023437486 L 139.26400756835938 62.91715240478514 L 139.50100708007812 62.79999923706053 L 139.8280029296875 62.58200073242186 L 140.1230010986328 62.32300186157225 L 140.3820037841797 62.02799987792967 L 140.60000610351562 61.70100021362303 L 140.72901916503906 61.43999862670897 L 140.7740020751953 61.348999023437486 L 140.89999389648438 60.97700119018553 L 140.9770050048828 60.591999053955064 L 141.0030059814453 60.20000076293944 L 140.9770050048828 59.80799865722655 L 140.89999389648438 59.423000335693345 L 140.7740020751953 59.050998687744126 L 140.60000610351562 58.699001312255845 L 140.3820037841797 58.372001647949205 L 140.1230010986328 58.076999664306626 L 139.8280029296875 57.81800079345702 L 139.50100708007812 57.59999847412108 L 139.26400756835938 57.48284530639647 L 139.1490020751953 57.425998687744126 L 138.9069061279297 57.34400177001952 L 138.77699279785156 57.29999923706053 L 138.39199829101562 57.22299957275389 L 138.0030059814453 57.19819259643553 M 149 1.1102230246251565e-16 L 150 1.1102230246251565e-16 L 150 83.60299682617186 L 150 99.99999999999997 L 134.9980010986328 99.99999999999997 L 56 99.99999999999997 L 8.998000144958496 99.99999999999997 L 1 99.99999999999997 L 0 99.99999999999997 L 0 1.1102230246251565e-16 L 1 1.1102230246251565e-16 L 8.998000144958496 1.1102230246251565e-16 L 15.003000259399414 1.1102230246251565e-16 L 56 1.1102230246251565e-16 L 71 1.1102230246251565e-16 L 81 1.1102230246251565e-16 L 134.9980010986328 1.1102230246251565e-16 L 141.0030059814453 1.1102230246251565e-16 L 149 1.1102230246251565e-16 M 1 -20.999999999999996 L 56 -20.999999999999996 L 56 -10.999999999999998 L 1 -10.999999999999998 L 1 -20.999999999999996 z" fill="none" stroke="rgb(255,0,0)" stroke-width="0.001mm" />
</svg>